<svg width="507" height="67" viewBox="0 0 507 67" fill="none" xmlns="http://www.w3.org/2000/svg">
<path d="M39.5674 25.5996C40.9137 23.8249 41.5869 21.9736 41.5869 20.0459C41.5869 18.1488 40.9137 16.2975 39.5674 14.4922C37.762 13.1458 35.9108 12.4727 34.0137 12.4727H12.5332V27.665H34.0137C35.9108 27.665 37.762 26.9766 39.5674 25.5996ZM48.5176 32.8516C46.804 34.8405 44.6621 36.4163 42.0918 37.5791C39.4603 39.0173 36.7676 39.7363 34.0137 39.7363H12.5332V67H0.920898V0.401367H34.0137C36.5228 0.401367 39.0931 0.967448 41.7246 2.09961C43.9277 2.95638 45.9014 4.37923 47.6455 6.36816C49.665 8.1429 51.1032 10.1318 51.96 12.335C53.0921 14.9665 53.6582 17.5368 53.6582 20.0459C53.6582 22.6162 53.2451 25.0182 52.4189 27.252L52.3271 27.4355C51.5316 29.3021 50.2617 31.1074 48.5176 32.8516ZM71.2832 0.401367V67H59.2119V0.401367H71.2832ZM91.249 67H76.8369L100.842 30.7861L80.8301 0.401367H94.7832L107.772 19.9082L120.395 0.401367H134.761L114.795 30.7402L138.341 67H124.388L107.818 41.6641L91.249 67ZM155.92 0.401367V67H143.849V0.401367H155.92ZM161.474 67V0.401367H214.211V12.4727H173.545V27.665H207.51V39.7363H173.545V54.9287H214.211V67H161.474ZM280.029 48.2275L299.766 0.401367H312.434L284.39 67H275.669L266.352 45.4277L257.264 67H248.543L219.765 0.401367H232.662L252.903 48.2275L260.063 30.8779L246.891 0.401367H259.788L280.029 48.2275ZM317.987 67V0.401367H370.725V12.4727H330.059V27.665H364.023V39.7363H330.059V54.9287H370.725V67H317.987ZM441.867 67H428.97L408.729 19.1279L388.946 67H376.278L404.368 0.401367H413.043L441.867 67ZM480.927 27.665C483.007 27.665 484.721 26.9766 486.067 25.5996C487.72 23.9779 488.546 22.1266 488.546 20.0459C488.546 17.9958 487.704 16.1445 486.021 14.4922C484.706 13.1458 483.007 12.4727 480.927 12.4727H459.492V27.665H480.927ZM506.033 67H491.667L472.481 39.7363H459.492V67H447.421V0.401367H480.927C483.375 0.401367 485.807 0.967448 488.225 2.09961C490.764 3.01758 492.876 4.44043 494.559 6.36816C496.333 8.1123 497.741 10.04 498.781 12.1514L498.965 12.6104C499.76 14.9971 500.158 17.4756 500.158 20.0459C500.158 22.6162 499.745 25.0182 498.919 27.252C498.001 29.3633 496.854 31.2298 495.477 32.8516L495.431 32.9434C492.83 35.8503 489.77 37.8239 486.251 38.8643L506.033 67Z" fill="#151515"/>
</svg>
